<svg xmlns="http://www.w3.org/2000/svg" xmlns:xlink="http://www.w3.org/1999/xlink" viewBox="0 0 82.57 74.87"><defs><style>.cls-1{fill:url(#linear-gradient);}.cls-2{fill:url(#linear-gradient-2);}.cls-3{fill:url(#linear-gradient-3);}.cls-4{fill:url(#linear-gradient-4);}.cls-5{fill:url(#linear-gradient-5);}.cls-6{fill:url(#linear-gradient-6);}.cls-7{fill:url(#linear-gradient-7);}.cls-8{fill:url(#linear-gradient-8);}.cls-9{fill:url(#linear-gradient-9);}.cls-10{fill:url(#linear-gradient-10);}.cls-11{fill:url(#linear-gradient-11);}.cls-12{fill:url(#linear-gradient-12);}.cls-13{fill:url(#linear-gradient-13);}.cls-14{fill:url(#linear-gradient-14);}.cls-15{fill:url(#linear-gradient-15);}.cls-16{fill:url(#linear-gradient-16);}.cls-17{fill:url(#linear-gradient-17);}.cls-18{fill:url(#linear-gradient-18);}.cls-19{fill:url(#linear-gradient-19);}.cls-20{fill:url(#linear-gradient-20);}.cls-21{fill:url(#linear-gradient-21);}.cls-22{fill:url(#linear-gradient-22);}.cls-23{fill:url(#linear-gradient-23);}.cls-24{fill:url(#linear-gradient-24);}.cls-25{fill:url(#linear-gradient-25);}.cls-26{fill:url(#linear-gradient-26);}.cls-27{fill:url(#linear-gradient-27);}.cls-28{fill:url(#linear-gradient-28);}.cls-29{fill:url(#linear-gradient-29);}.cls-30{fill:url(#linear-gradient-30);}.cls-31{fill:url(#linear-gradient-31);}.cls-32{fill:url(#linear-gradient-32);}.cls-33{fill:url(#linear-gradient-33);}.cls-34{fill:url(#linear-gradient-34);}.cls-35{fill:url(#linear-gradient-35);}.cls-36{fill:url(#linear-gradient-36);}.cls-37{fill:url(#linear-gradient-37);}.cls-38{fill:url(#linear-gradient-38);}.cls-39{fill:url(#linear-gradient-39);}.cls-40{fill:url(#linear-gradient-40);}.cls-41{fill:url(#linear-gradient-41);}.cls-42{fill:url(#linear-gradient-42);}.cls-43{fill:url(#linear-gradient-43);}.cls-44{fill:url(#linear-gradient-44);}.cls-45{fill:url(#linear-gradient-45);}.cls-46{fill:url(#linear-gradient-46);}.cls-47{fill:url(#linear-gradient-47);}.cls-48{fill:url(#linear-gradient-48);}.cls-49{fill:url(#linear-gradient-49);}.cls-50{fill:url(#linear-gradient-50);}.cls-51{fill:url(#linear-gradient-51);}.cls-52{fill:url(#linear-gradient-52);}.cls-53{fill:url(#linear-gradient-53);}.cls-54{fill:url(#linear-gradient-54);}.cls-55{fill:url(#linear-gradient-55);}.cls-56{fill:url(#linear-gradient-56);}.cls-57{fill:url(#linear-gradient-57);}.cls-58{fill:url(#linear-gradient-58);}.cls-59{fill:url(#linear-gradient-59);}.cls-60{fill:url(#linear-gradient-60);}.cls-61{fill:url(#linear-gradient-61);}.cls-62{fill:url(#linear-gradient-62);}.cls-63{fill:url(#linear-gradient-63);}.cls-64{fill:url(#linear-gradient-64);}.cls-65{fill:url(#linear-gradient-65);}.cls-66{fill:url(#linear-gradient-66);}.cls-67{fill:url(#linear-gradient-67);}.cls-68{fill:url(#linear-gradient-68);}.cls-69{fill:url(#linear-gradient-69);}.cls-70{fill:url(#linear-gradient-70);}.cls-71{fill:url(#linear-gradient-71);}.cls-72{fill:url(#linear-gradient-72);}.cls-73{fill:url(#linear-gradient-73);}.cls-74{fill:url(#linear-gradient-74);}.cls-75{fill:url(#linear-gradient-75);}.cls-76{fill:url(#linear-gradient-76);}.cls-77{fill:url(#linear-gradient-77);}.cls-78{fill:url(#linear-gradient-78);}.cls-79{fill:url(#linear-gradient-79);}.cls-80{fill:url(#linear-gradient-80);}.cls-81{fill:url(#linear-gradient-81);}.cls-82{fill:url(#linear-gradient-82);}.cls-83{fill:url(#linear-gradient-83);}.cls-84{fill:url(#linear-gradient-84);}.cls-85{fill:url(#linear-gradient-85);}.cls-86{fill:url(#linear-gradient-86);}.cls-87{fill:url(#linear-gradient-87);}.cls-88{fill:url(#linear-gradient-88);}.cls-89{fill:url(#linear-gradient-89);}.cls-90{fill:url(#linear-gradient-90);}.cls-91{fill:url(#linear-gradient-91);}.cls-92{fill:url(#linear-gradient-92);}.cls-93{fill:url(#linear-gradient-93);}.cls-94{fill:url(#linear-gradient-94);}.cls-95{fill:url(#linear-gradient-95);}.cls-96{fill:url(#linear-gradient-96);}.cls-97{fill:url(#linear-gradient-97);}.cls-98{fill:url(#linear-gradient-98);}.cls-99{fill:url(#linear-gradient-99);}.cls-100{fill:url(#linear-gradient-100);}.cls-101{fill:url(#linear-gradient-101);}.cls-102{fill:url(#linear-gradient-102);}.cls-103{fill:url(#linear-gradient-103);}.cls-104{fill:url(#linear-gradient-104);}.cls-105{fill:url(#linear-gradient-105);}.cls-106{fill:url(#linear-gradient-106);}.cls-107{fill:url(#linear-gradient-107);}.cls-108{fill:url(#linear-gradient-108);}.cls-109{fill:url(#linear-gradient-109);}.cls-110{fill:url(#linear-gradient-110);}.cls-111{fill:url(#linear-gradient-111);}.cls-112{fill:url(#linear-gradient-112);}.cls-113{fill:url(#linear-gradient-113);}.cls-114{fill:url(#linear-gradient-114);}.cls-115{fill:url(#linear-gradient-115);}.cls-116{fill:url(#linear-gradient-116);}.cls-117{fill:url(#linear-gradient-117);}.cls-118{fill:url(#linear-gradient-118);}.cls-119{fill:url(#linear-gradient-119);}.cls-120{fill:url(#linear-gradient-120);}.cls-121{fill:url(#linear-gradient-121);}.cls-122{fill:url(#linear-gradient-122);}.cls-123{fill:url(#linear-gradient-123);}.cls-124{fill:url(#linear-gradient-124);}.cls-125{fill:url(#linear-gradient-125);}.cls-126{fill:url(#linear-gradient-126);}.cls-127{fill:url(#linear-gradient-127);}.cls-128{fill:url(#linear-gradient-128);}.cls-129{fill:url(#linear-gradient-129);}.cls-130{fill:url(#linear-gradient-130);}.cls-131{fill:url(#linear-gradient-131);}.cls-132{fill:url(#linear-gradient-132);}.cls-133{fill:url(#linear-gradient-133);}.cls-134{fill:url(#linear-gradient-134);}.cls-135{fill:url(#linear-gradient-135);}.cls-136{fill:url(#linear-gradient-136);}</style><linearGradient id="linear-gradient" x1="358.68" y1="139.27" x2="325.59" y2="195.53" gradientTransform="matrix(-1, 0, 0, 1, 402.25, -121.92)" gradientUnits="userSpaceOnUse"><stop offset="0" stop-color="#6710e8"/><stop offset="1" stop-color="#a359f5"/></linearGradient><linearGradient id="linear-gradient-2" x1="358.47" y1="139.62" x2="325.65" y2="195.44" xlink:href="#linear-gradient"/><linearGradient id="linear-gradient-3" x1="358.64" y1="139.32" x2="325.6" y2="195.51" xlink:href="#linear-gradient"/><linearGradient id="linear-gradient-4" x1="358.44" y1="139.66" x2="325.65" y2="195.43" xlink:href="#linear-gradient"/><linearGradient id="linear-gradient-5" x1="351.07" y1="133.73" x2="317.36" y2="191.06" xlink:href="#linear-gradient"/><linearGradient id="linear-gradient-6" x1="350.37" y1="134.84" x2="317.54" y2="190.68" xlink:href="#linear-gradient"/><linearGradient id="linear-gradient-7" x1="350.55" y1="134.54" x2="317.5" y2="190.75" xlink:href="#linear-gradient"/><linearGradient id="linear-gradient-8" x1="350.34" y1="134.9" x2="317.55" y2="190.66" xlink:href="#linear-gradient"/><linearGradient id="linear-gradient-9" x1="353.54" y1="135.56" x2="319.83" y2="192.89" xlink:href="#linear-gradient"/><linearGradient id="linear-gradient-10" x1="353.04" y1="136.31" x2="320.12" y2="192.3" xlink:href="#linear-gradient"/><linearGradient id="linear-gradient-11" x1="353.46" y1="135.69" x2="319.88" y2="192.79" xlink:href="#linear-gradient"/><linearGradient id="linear-gradient-12" x1="352.96" y1="136.44" x2="320.17" y2="192.2" xlink:href="#linear-gradient"/><linearGradient id="linear-gradient-13" x1="367" y1="143.42" x2="333.45" y2="200.48" xlink:href="#linear-gradient"/><linearGradient id="linear-gradient-14" x1="366.49" y1="144.31" x2="333.65" y2="200.15" xlink:href="#linear-gradient"/><linearGradient id="linear-gradient-15" x1="366.68" y1="144.02" x2="333.63" y2="200.24" xlink:href="#linear-gradient"/><linearGradient id="linear-gradient-16" x1="366.45" y1="144.37" x2="333.66" y2="200.14" xlink:href="#linear-gradient"/><linearGradient id="linear-gradient-17" x1="359.59" y1="137.55" x2="324.78" y2="196.75" xlink:href="#linear-gradient"/><linearGradient id="linear-gradient-18" x1="358.52" y1="139.36" x2="325.48" y2="195.56" xlink:href="#linear-gradient"/><linearGradient id="linear-gradient-19" x1="359.31" y1="138.02" x2="324.97" y2="196.42" xlink:href="#linear-gradient"/><linearGradient id="linear-gradient-20" x1="358.37" y1="139.62" x2="325.58" y2="195.39" xlink:href="#linear-gradient"/><linearGradient id="linear-gradient-21" x1="350.58" y1="134.3" x2="317.02" y2="191.36" xlink:href="#linear-gradient"/><linearGradient id="linear-gradient-22" x1="350.25" y1="134.81" x2="317.42" y2="190.65" xlink:href="#linear-gradient"/><linearGradient id="linear-gradient-23" x1="350.32" y1="134.66" x2="317.26" y2="190.88" xlink:href="#linear-gradient"/><linearGradient id="linear-gradient-24" x1="350.24" y1="134.84" x2="317.45" y2="190.61" xlink:href="#linear-gradient"/><linearGradient id="linear-gradient-25" x1="359.59" y1="137.45" x2="324.5" y2="197.13" xlink:href="#linear-gradient"/><linearGradient id="linear-gradient-26" x1="358.48" y1="139.32" x2="325.4" y2="195.58" xlink:href="#linear-gradient"/><linearGradient id="linear-gradient-27" x1="359.31" y1="137.91" x2="324.71" y2="196.76" xlink:href="#linear-gradient"/><linearGradient id="linear-gradient-28" x1="358.32" y1="139.59" x2="325.53" y2="195.36" xlink:href="#linear-gradient"/><linearGradient id="linear-gradient-29" x1="364.21" y1="141.84" x2="330.5" y2="199.17" xlink:href="#linear-gradient"/><linearGradient id="linear-gradient-30" x1="363.8" y1="142.64" x2="330.88" y2="198.63" xlink:href="#linear-gradient"/><linearGradient id="linear-gradient-31" x1="364.14" y1="141.97" x2="330.56" y2="199.08" xlink:href="#linear-gradient"/><linearGradient id="linear-gradient-32" x1="363.73" y1="142.77" x2="330.94" y2="198.54" xlink:href="#linear-gradient"/><linearGradient id="linear-gradient-33" x1="358.36" y1="139.36" x2="325.26" y2="195.65" xlink:href="#linear-gradient"/><linearGradient id="linear-gradient-34" x1="358.26" y1="139.52" x2="325.43" y2="195.36" xlink:href="#linear-gradient"/><linearGradient id="linear-gradient-35" x1="358.34" y1="139.39" x2="325.29" y2="195.6" xlink:href="#linear-gradient"/><linearGradient id="linear-gradient-36" x1="358.25" y1="139.55" x2="325.46" y2="195.31" xlink:href="#linear-gradient"/><linearGradient id="linear-gradient-37" x1="366.64" y1="143.8" x2="333.16" y2="200.74" xlink:href="#linear-gradient"/><linearGradient id="linear-gradient-38" x1="366.37" y1="144.29" x2="333.54" y2="200.13" xlink:href="#linear-gradient"/><linearGradient id="linear-gradient-39" x1="366.47" y1="144.17" x2="333.41" y2="200.38" xlink:href="#linear-gradient"/><linearGradient id="linear-gradient-40" x1="366.35" y1="144.31" x2="333.56" y2="200.08" xlink:href="#linear-gradient"/><linearGradient id="linear-gradient-41" x1="366.47" y1="143.87" x2="332.91" y2="200.95" xlink:href="#linear-gradient"/><linearGradient id="linear-gradient-42" x1="366.27" y1="144.23" x2="333.44" y2="200.07" xlink:href="#linear-gradient"/><linearGradient id="linear-gradient-43" x1="366.37" y1="144.11" x2="333.31" y2="200.33" xlink:href="#linear-gradient"/><linearGradient id="linear-gradient-44" x1="366.25" y1="144.25" x2="333.46" y2="200.02" xlink:href="#linear-gradient"/><linearGradient id="linear-gradient-45" x1="328.83" y1="130.21" x2="380.55" y2="212.82" gradientTransform="matrix(-1, 0, 0, 1, 402.25, -121.92)" gradientUnits="userSpaceOnUse"><stop offset="0" stop-color="#f332b9"/><stop offset="0.47" stop-color="#f36f94"/><stop offset="1" stop-color="#f4b06d"/></linearGradient><linearGradient id="linear-gradient-46" x1="329.49" y1="131.32" x2="378.12" y2="209" xlink:href="#linear-gradient-45"/><linearGradient id="linear-gradient-47" x1="329.03" y1="130.55" x2="379.77" y2="211.61" xlink:href="#linear-gradient-45"/><linearGradient id="linear-gradient-48" x1="329.58" y1="131.47" x2="377.8" y2="208.49" xlink:href="#linear-gradient-45"/><linearGradient id="linear-gradient-49" x1="334.74" y1="127.62" x2="384.31" y2="206.8" xlink:href="#linear-gradient-45"/><linearGradient id="linear-gradient-50" x1="335.02" y1="127.98" x2="383.43" y2="205.3" xlink:href="#linear-gradient-45"/><linearGradient id="linear-gradient-51" x1="334.79" y1="127.68" x2="384.17" y2="206.55" xlink:href="#linear-gradient-45"/><linearGradient id="linear-gradient-52" x1="335.07" y1="128.04" x2="383.28" y2="205.05" xlink:href="#linear-gradient-45"/><linearGradient id="linear-gradient-53" x1="337.07" y1="126" x2="386.41" y2="204.8" xlink:href="#linear-gradient-45"/><linearGradient id="linear-gradient-54" x1="337.41" y1="126.52" x2="385.69" y2="203.64" xlink:href="#linear-gradient-45"/><linearGradient id="linear-gradient-55" x1="337.31" y1="126.32" x2="385.91" y2="203.96" xlink:href="#linear-gradient-45"/><linearGradient id="linear-gradient-56" x1="337.43" y1="126.56" x2="385.65" y2="203.57" xlink:href="#linear-gradient-45"/><linearGradient id="linear-gradient-57" x1="342.88" y1="122.8" x2="392.12" y2="201.45" xlink:href="#linear-gradient-45"/><linearGradient id="linear-gradient-58" x1="343.01" y1="123.03" x2="391.29" y2="200.16" xlink:href="#linear-gradient-45"/><linearGradient id="linear-gradient-59" x1="342.92" y1="122.93" x2="391.55" y2="200.62" xlink:href="#linear-gradient-45"/><linearGradient id="linear-gradient-60" x1="343.02" y1="123.05" x2="391.24" y2="200.07" xlink:href="#linear-gradient-45"/><linearGradient id="linear-gradient-61" x1="342.32" y1="122.86" x2="391.65" y2="201.66" xlink:href="#linear-gradient-45"/><linearGradient id="linear-gradient-62" x1="342.57" y1="123.31" x2="390.85" y2="200.43" xlink:href="#linear-gradient-45"/><linearGradient id="linear-gradient-63" x1="342.49" y1="123.21" x2="391.09" y2="200.84" xlink:href="#linear-gradient-45"/><linearGradient id="linear-gradient-64" x1="342.59" y1="123.33" x2="390.8" y2="200.34" xlink:href="#linear-gradient-45"/><linearGradient id="linear-gradient-65" x1="344.5" y1="121.03" x2="394.07" y2="200.2" xlink:href="#linear-gradient-45"/><linearGradient id="linear-gradient-66" x1="344.89" y1="121.73" x2="393.29" y2="199.05" xlink:href="#linear-gradient-45"/><linearGradient id="linear-gradient-67" x1="344.57" y1="121.14" x2="393.94" y2="200.01" xlink:href="#linear-gradient-45"/><linearGradient id="linear-gradient-68" x1="344.95" y1="121.85" x2="393.17" y2="198.86" xlink:href="#linear-gradient-45"/><linearGradient id="linear-gradient-69" x1="341.68" y1="122.82" x2="390.93" y2="201.48" xlink:href="#linear-gradient-45"/><linearGradient id="linear-gradient-70" x1="342.11" y1="123.55" x2="390.4" y2="200.67" xlink:href="#linear-gradient-45"/><linearGradient id="linear-gradient-71" x1="341.91" y1="123.27" x2="390.55" y2="200.95" xlink:href="#linear-gradient-45"/><linearGradient id="linear-gradient-72" x1="342.15" y1="123.6" x2="390.37" y2="200.62" xlink:href="#linear-gradient-45"/><linearGradient id="linear-gradient-73" x1="341.09" y1="122.84" x2="390.43" y2="201.65" xlink:href="#linear-gradient-45"/><linearGradient id="linear-gradient-74" x1="341.68" y1="123.82" x2="389.96" y2="200.94" xlink:href="#linear-gradient-45"/><linearGradient id="linear-gradient-75" x1="341.49" y1="123.56" x2="390.1" y2="201.19" xlink:href="#linear-gradient-45"/><linearGradient id="linear-gradient-76" x1="341.72" y1="123.87" x2="389.93" y2="200.89" xlink:href="#linear-gradient-45"/><linearGradient id="linear-gradient-77" x1="343.21" y1="120.89" x2="392.77" y2="200.07" xlink:href="#linear-gradient-45"/><linearGradient id="linear-gradient-78" x1="343.96" y1="122.18" x2="392.36" y2="199.5" xlink:href="#linear-gradient-45"/><linearGradient id="linear-gradient-79" x1="343.33" y1="121.11" x2="392.71" y2="199.97" xlink:href="#linear-gradient-45"/><linearGradient id="linear-gradient-80" x1="344.08" y1="122.39" x2="392.3" y2="199.41" xlink:href="#linear-gradient-45"/><linearGradient id="linear-gradient-81" x1="340.49" y1="122.86" x2="389.73" y2="201.51" xlink:href="#linear-gradient-45"/><linearGradient id="linear-gradient-82" x1="341.22" y1="124.06" x2="389.51" y2="201.18" xlink:href="#linear-gradient-45"/><linearGradient id="linear-gradient-83" x1="340.91" y1="123.6" x2="389.55" y2="201.29" xlink:href="#linear-gradient-45"/><linearGradient id="linear-gradient-84" x1="341.28" y1="124.14" x2="389.5" y2="201.16" xlink:href="#linear-gradient-45"/><linearGradient id="linear-gradient-85" x1="348.65" y1="118.71" x2="397.31" y2="196.42" xlink:href="#linear-gradient-45"/><linearGradient id="linear-gradient-86" x1="348.98" y1="119.23" x2="397.25" y2="196.33" xlink:href="#linear-gradient-45"/><linearGradient id="linear-gradient-87" x1="348.7" y1="118.79" x2="397.3" y2="196.41" xlink:href="#linear-gradient-45"/><linearGradient id="linear-gradient-88" x1="349.02" y1="119.3" x2="397.24" y2="196.32" xlink:href="#linear-gradient-45"/><linearGradient id="linear-gradient-89" x1="349.66" y1="118.38" x2="398.31" y2="196.1" xlink:href="#linear-gradient-45"/><linearGradient id="linear-gradient-90" x1="349.86" y1="118.71" x2="398.13" y2="195.81" xlink:href="#linear-gradient-45"/><linearGradient id="linear-gradient-91" x1="349.69" y1="118.44" x2="398.28" y2="196.05" xlink:href="#linear-gradient-45"/><linearGradient id="linear-gradient-92" x1="349.89" y1="118.75" x2="398.11" y2="195.77" xlink:href="#linear-gradient-45"/><linearGradient id="linear-gradient-93" x1="350.67" y1="118.06" x2="399.32" y2="195.77" xlink:href="#linear-gradient-45"/><linearGradient id="linear-gradient-94" x1="350.75" y1="118.19" x2="399.02" y2="195.29" xlink:href="#linear-gradient-45"/><linearGradient id="linear-gradient-95" x1="350.68" y1="118.08" x2="399.27" y2="195.69" xlink:href="#linear-gradient-45"/><linearGradient id="linear-gradient-96" x1="350.76" y1="118.21" x2="398.98" y2="195.23" xlink:href="#linear-gradient-45"/><linearGradient id="linear-gradient-97" x1="347.24" y1="115.67" x2="398.49" y2="197.54" xlink:href="#linear-gradient-45"/><linearGradient id="linear-gradient-98" x1="349.1" y1="118.7" x2="397.67" y2="196.27" xlink:href="#linear-gradient-45"/><linearGradient id="linear-gradient-99" x1="347.85" y1="116.68" x2="398.2" y2="197.11" xlink:href="#linear-gradient-45"/><linearGradient id="linear-gradient-100" x1="349.35" y1="119.09" x2="397.57" y2="196.11" xlink:href="#linear-gradient-45"/><linearGradient id="linear-gradient-101" x1="347.46" y1="115.58" x2="398.84" y2="197.64" xlink:href="#linear-gradient-45"/><linearGradient id="linear-gradient-102" x1="349.33" y1="118.59" x2="397.9" y2="196.16" xlink:href="#linear-gradient-45"/><linearGradient id="linear-gradient-103" x1="348.15" y1="116.7" x2="398.5" y2="197.12" xlink:href="#linear-gradient-45"/><linearGradient id="linear-gradient-104" x1="349.57" y1="118.96" x2="397.78" y2="195.97" xlink:href="#linear-gradient-45"/><linearGradient id="linear-gradient-105" x1="349.09" y1="116.63" x2="400.36" y2="198.53" xlink:href="#linear-gradient-45"/><linearGradient id="linear-gradient-106" x1="350.09" y1="118.33" x2="398.65" y2="195.91" xlink:href="#linear-gradient-45"/><linearGradient id="linear-gradient-107" x1="349.39" y1="117.21" x2="399.75" y2="197.65" xlink:href="#linear-gradient-45"/><linearGradient id="linear-gradient-108" x1="350.22" y1="118.55" x2="398.44" y2="195.57" xlink:href="#linear-gradient-45"/><linearGradient id="linear-gradient-109" x1="349.33" y1="116.63" x2="400.71" y2="198.7" xlink:href="#linear-gradient-45"/><linearGradient id="linear-gradient-110" x1="350.31" y1="118.22" x2="398.88" y2="195.79" xlink:href="#linear-gradient-45"/><linearGradient id="linear-gradient-111" x1="349.69" y1="117.22" x2="400.05" y2="197.66" xlink:href="#linear-gradient-45"/><linearGradient id="linear-gradient-112" x1="350.44" y1="118.41" x2="398.65" y2="195.43" xlink:href="#linear-gradient-45"/><linearGradient id="linear-gradient-113" x1="353.86" y1="114.2" x2="403.43" y2="193.38" xlink:href="#linear-gradient-45"/><linearGradient id="linear-gradient-114" x1="354.7" y1="115.46" x2="403.1" y2="192.77" xlink:href="#linear-gradient-45"/><linearGradient id="linear-gradient-115" x1="354" y1="114.41" x2="403.37" y2="193.28" xlink:href="#linear-gradient-45"/><linearGradient id="linear-gradient-116" x1="354.83" y1="115.66" x2="403.05" y2="192.68" xlink:href="#linear-gradient-45"/><linearGradient id="linear-gradient-117" x1="355.16" y1="114.34" x2="404.72" y2="193.52" xlink:href="#linear-gradient-45"/><linearGradient id="linear-gradient-118" x1="355.63" y1="115.01" x2="404.03" y2="192.33" xlink:href="#linear-gradient-45"/><linearGradient id="linear-gradient-119" x1="355.23" y1="114.45" x2="404.61" y2="193.32" xlink:href="#linear-gradient-45"/><linearGradient id="linear-gradient-120" x1="355.71" y1="115.11" x2="403.92" y2="192.13" xlink:href="#linear-gradient-45"/><linearGradient id="linear-gradient-121" x1="356.3" y1="112.75" x2="405.63" y2="191.56" xlink:href="#linear-gradient-45"/><linearGradient id="linear-gradient-122" x1="357.15" y1="114.09" x2="405.43" y2="191.21" xlink:href="#linear-gradient-45"/><linearGradient id="linear-gradient-123" x1="356.89" y1="113.65" x2="405.49" y2="191.28" xlink:href="#linear-gradient-45"/><linearGradient id="linear-gradient-124" x1="357.2" y1="114.18" x2="405.41" y2="191.2" xlink:href="#linear-gradient-45"/><linearGradient id="linear-gradient-125" x1="357.03" y1="112.96" x2="406.26" y2="191.61" xlink:href="#linear-gradient-45"/><linearGradient id="linear-gradient-126" x1="357.6" y1="113.85" x2="405.88" y2="190.97" xlink:href="#linear-gradient-45"/><linearGradient id="linear-gradient-127" x1="357.43" y1="113.53" x2="406.07" y2="191.22" xlink:href="#linear-gradient-45"/><linearGradient id="linear-gradient-128" x1="357.63" y1="113.91" x2="405.85" y2="190.92" xlink:href="#linear-gradient-45"/><linearGradient id="linear-gradient-129" x1="357.52" y1="112.78" x2="406.86" y2="191.58" xlink:href="#linear-gradient-45"/><linearGradient id="linear-gradient-130" x1="358.04" y1="113.58" x2="406.32" y2="190.7" xlink:href="#linear-gradient-45"/><linearGradient id="linear-gradient-131" x1="357.88" y1="113.3" x2="406.49" y2="190.93" xlink:href="#linear-gradient-45"/><linearGradient id="linear-gradient-132" x1="358.07" y1="113.64" x2="406.28" y2="190.65" xlink:href="#linear-gradient-45"/><linearGradient id="linear-gradient-133" x1="358.22" y1="112.93" x2="407.46" y2="191.58" xlink:href="#linear-gradient-45"/><linearGradient id="linear-gradient-134" x1="358.49" y1="113.34" x2="406.78" y2="190.46" xlink:href="#linear-gradient-45"/><linearGradient id="linear-gradient-135" x1="358.43" y1="113.2" x2="407.07" y2="190.89" xlink:href="#linear-gradient-45"/><linearGradient id="linear-gradient-136" x1="358.5" y1="113.36" x2="406.72" y2="190.38" xlink:href="#linear-gradient-45"/></defs><g id="Layer_2" data-name="Layer 2"><g id="Layer_1-2" data-name="Layer 1"><path class="cls-1" d="M70,74.87A12.55,12.55,0,1,1,80.89,68.6,12.59,12.59,0,0,1,70,74.87Z"/><path class="cls-2" d="M70,74.78A12.46,12.46,0,1,1,80.8,68.55,12.51,12.51,0,0,1,70,74.78Z"/><path class="cls-3" d="M70,74.86a12.55,12.55,0,1,1,10.85-6.27A12.61,12.61,0,0,1,70,74.86Z"/><path class="cls-4" d="M80.79,56.1A12.48,12.48,0,0,0,70,49.88,12.44,12.44,0,1,0,80.79,56.1Z"/><path class="cls-5" d="M80.69,56.15h0A12.36,12.36,0,0,0,70,50h-.1l0-.1v-.22l.13.09H77.2l3.71,6.31,0,.06-.08,0Z"/><path class="cls-6" d="M80.77,56.09A12.45,12.45,0,0,0,70,49.89h0v0l0,0v0H77.2l3.6,6.22v0h0Z"/><path class="cls-7" d="M80.69,56.13A12.31,12.31,0,0,0,70,50h0v-.2l0,.1v-.1H77.2L80.87,56l-.08.07-.09,0Z"/><path class="cls-8" d="M76.23,51.55a12.29,12.29,0,0,1,4.56,4.55L77.2,49.88H70A12.35,12.35,0,0,1,76.23,51.55Z"/><polygon class="cls-9" points="62.63 49.99 70.02 37.21 77.4 49.99 62.63 49.99"/><polygon class="cls-10" points="70.02 37.41 77.23 49.9 70.01 49.89 62.81 49.9 70.02 37.41"/><polygon class="cls-11" points="70.02 37.24 77.37 49.98 62.66 49.98 70.02 37.24"/><polygon class="cls-12" points="62.83 49.88 70.01 49.88 77.2 49.88 70.02 37.44 66.42 43.66 62.83 49.88"/><path class="cls-13" d="M59.14,68.6l-3.59-6.22L59.19,56l.18.09,0,.11a12.32,12.32,0,0,0,0,12.32l0,.09-.17.1Z"/><path class="cls-14" d="M55.64,62.33l3.59-6.24,0,0a12.4,12.4,0,0,0-1.67,6.21,12.55,12.55,0,0,0,1.66,6.21l0,0Z"/><path class="cls-15" d="M55.57,62.37l3.59-6.32.17.1a12.3,12.3,0,0,0,0,12.34l-.18.1Z"/><path class="cls-16" d="M59.24,56.1l-3.59,6.22,3.59,6.22a12.42,12.42,0,0,1,0-12.44Z"/><path class="cls-17" d="M59.09,56.13l3.64-6.31,7.38-.06V50L70,50a12.38,12.38,0,0,0-10.67,6.17l-.05.08Z"/><path class="cls-18" d="M59.23,56.09l3.59-6.22H70v0a12.46,12.46,0,0,0-10.75,6.22Z"/><path class="cls-19" d="M59.16,56.05l3.59-6.22,7.26,0V50a12.36,12.36,0,0,0-10.68,6.17Z"/><path class="cls-20" d="M59.24,56.1A12.44,12.44,0,0,1,70,49.88H62.83Z"/><path class="cls-21" d="M66.27,43.69l0-.09a12.35,12.35,0,0,0,0-12.32l0-.09.08-.05,0,0,0,0,.08-.06.07.08,3.62,6.28L66.48,43.8Z"/><path class="cls-22" d="M66.41,43.65a12.46,12.46,0,0,0,0-12.42h0l0,0h0L70,37.44l-3.6,6.23Z"/><path class="cls-23" d="M66.34,43.61a12.36,12.36,0,0,0,0-12.34l.17-.1,3.62,6.27-3.62,6.27Z"/><path class="cls-24" d="M66.43,43.66,70,37.44l-3.6-6.22A12.43,12.43,0,0,1,66.43,43.66Z"/><path class="cls-25" d="M55.55,50v-.2l.1,0A12.32,12.32,0,0,0,66.32,43.6l.05-.09.18.1,0,.11L62.9,50Z"/><path class="cls-26" d="M55.65,49.89v0a12.41,12.41,0,0,0,10.76-6.21l0,0-3.6,6.22Z"/><path class="cls-27" d="M55.65,50v-.2a12.33,12.33,0,0,0,10.69-6.17l.17.1L62.89,50Z"/><path class="cls-28" d="M61.87,48.21a12.38,12.38,0,0,1-6.22,1.67h7.18l3.6-6.22A12.51,12.51,0,0,1,61.87,48.21Z"/><polygon class="cls-29" points="48.27 49.76 63.03 49.76 55.65 62.55 48.27 49.76"/><polygon class="cls-30" points="52.05 56.11 48.44 49.86 55.65 49.86 62.86 49.86 55.65 62.35 52.05 56.11"/><polygon class="cls-31" points="48.3 49.78 63.01 49.78 55.65 62.52 48.3 49.78"/><polygon class="cls-32" points="62.83 49.88 55.65 49.88 48.47 49.88 52.06 56.1 55.65 62.32 59.24 56.1 62.83 49.88"/><path class="cls-33" d="M55.65,50a12.58,12.58,0,0,1-10.87-6.27,12.71,12.71,0,0,1-1.69-6.28A12.56,12.56,0,0,1,61.93,26.56a12.55,12.55,0,0,1,0,21.75A12.54,12.54,0,0,1,55.65,50Z"/><path class="cls-34" d="M55.65,49.89a12.42,12.42,0,1,1,6.23-1.66,12.49,12.49,0,0,1-6.23,1.66Z"/><path class="cls-35" d="M55.65,50a12.54,12.54,0,1,1,6.27-1.68A12.58,12.58,0,0,1,55.65,50Z"/><path class="cls-36" d="M55.65,49.88a12.38,12.38,0,0,0,6.22-1.67,12.41,12.41,0,0,0,4.55-17A12.44,12.44,0,1,0,55.65,49.88Z"/><path class="cls-37" d="M44.73,43.63l.09-.05h0l.08,0,.08.07a12.37,12.37,0,0,0,10.67,6.15h.09V50l-.1,0H48.4Z"/><path class="cls-38" d="M44.86,43.67l0,0,0,0h0a12.46,12.46,0,0,0,10.75,6.2v0H48.46Z"/><path class="cls-39" d="M44.79,43.71l.17-.1-.16.1.17-.1a12.36,12.36,0,0,0,10.68,6.17V50H48.41Z"/><path class="cls-40" d="M44.88,43.66l3.59,6.22h7.18A12.44,12.44,0,0,1,44.88,43.66Z"/><path class="cls-41" d="M44.78,43.72l-3.63-6.28,3.68-6.37.17.1,0,.1A12.34,12.34,0,0,0,45,43.6l.05.09-.17.09Z"/><path class="cls-42" d="M41.27,37.44l3.59-6.23,0,0a12.51,12.51,0,0,0-1.67,6.21,12.64,12.64,0,0,0,1.67,6.21l0,0Z"/><path class="cls-43" d="M41.17,37.44l3.62-6.27.17.1a12.34,12.34,0,0,0-1.65,6.17A12.47,12.47,0,0,0,45,43.61l-.17.1Z"/><path class="cls-44" d="M44.88,31.22l-3.59,6.22,3.59,6.22a12.42,12.42,0,0,1,0-12.44Z"/><path class="cls-45" d="M66.32,31.28v0a12.24,12.24,0,0,0-4.5-4.48,12.4,12.4,0,0,0-6.14-1.66h-.1l0-.1v-.24l.14.11H62.9l3.68,6.37-.18.1Z"/><path class="cls-46" d="M66.39,31.2A12.44,12.44,0,0,0,55.67,25h0v0l0,0v0h7.18l3.59,6.23,0,0Z"/><path class="cls-47" d="M66.32,31.24A12.32,12.32,0,0,0,55.67,25.1h0v-.2l0,.1v-.1h7.22l3.6,6.24-.07.08-.08.05Z"/><path class="cls-48" d="M61.87,26.66a12.36,12.36,0,0,1,4.55,4.56L62.84,25H55.65A12.44,12.44,0,0,1,61.87,26.66Z"/><polygon class="cls-49" points="48.27 25.11 55.65 12.32 63.04 25.11 48.27 25.11"/><polygon class="cls-50" points="48.44 25.01 55.65 12.52 62.86 25.02 48.44 25.01"/><polygon class="cls-51" points="48.3 25.1 55.65 12.36 63.01 25.1 48.3 25.1"/><polygon class="cls-52" points="48.47 25 55.65 25 62.84 25 55.65 12.56 52.06 18.78 48.47 25"/><path class="cls-53" d="M44.73,31.24l3.67-6.36h7.35v.2l-.1,0A12.32,12.32,0,0,0,45,31.27l0,.09Z"/><path class="cls-54" d="M44.86,31.21,48.46,25h7.19v0a12.56,12.56,0,0,0-6.21,1.67,12.41,12.41,0,0,0-4.55,4.55Z"/><path class="cls-55" d="M44.79,31.17l3.62-6.27h7.24v.2A12.33,12.33,0,0,0,45,31.27Z"/><path class="cls-56" d="M44.88,31.22A12.39,12.39,0,0,1,55.65,25H48.47Z"/><path class="cls-57" d="M51.91,18.8l.05-.08A12.37,12.37,0,0,0,52,6.4l-.05-.09.17-.1.08.07,3.59,6.22-3.64,6.42Z"/><path class="cls-58" d="M52.05,18.77a12.46,12.46,0,0,0,0-12.42l0,0,3.59,6.22-3.6,6.24Z"/><path class="cls-59" d="M52,18.73A12.39,12.39,0,0,0,52,6.39l.17-.1,3.59,6.22-3.59,6.32Z"/><path class="cls-60" d="M52.06,18.78l3.59-6.22L52.06,6.34A12.45,12.45,0,0,1,52.06,18.78Z"/><path class="cls-61" d="M41.19,24.88h.1A12.36,12.36,0,0,0,52,18.72l0-.09.17.1,0,.11-3.59,6.21-7.38.06Z"/><path class="cls-62" d="M41.29,25a12.48,12.48,0,0,0,10.76-6.21l0,0L48.48,25H41.29Z"/><path class="cls-63" d="M41.29,24.9A12.37,12.37,0,0,0,52,18.73l.18.1-3.6,6.22-7.26.05Z"/><path class="cls-64" d="M41.29,25h7.18l3.59-6.22A12.44,12.44,0,0,1,41.29,25Z"/><polygon class="cls-65" points="33.9 24.88 48.67 24.88 41.29 37.67 33.9 24.88"/><polygon class="cls-66" points="37.68 31.23 34.08 24.98 41.29 24.98 48.5 24.98 41.29 37.47 37.68 31.23"/><polygon class="cls-67" points="33.93 24.9 48.64 24.9 41.29 37.64 33.93 24.9"/><polygon class="cls-68" points="48.47 25 41.29 25 34.1 25 37.7 31.22 41.29 37.44 44.88 31.22 48.47 25"/><path class="cls-69" d="M37.54,43.69l.05-.09a12.35,12.35,0,0,0,0-12.32l-.05-.09.17-.1.08.07,3.59,6.22L37.75,43.8Z"/><path class="cls-70" d="M37.68,43.65a12.46,12.46,0,0,0,0-12.42l0,0,3.59,6.22-3.59,6.23Z"/><path class="cls-71" d="M37.61,43.61a12.36,12.36,0,0,0,0-12.34l.17-.1,3.59,6.22-3.59,6.32Z"/><path class="cls-72" d="M37.69,43.66l3.6-6.22L37.7,31.22A12.43,12.43,0,0,1,37.69,43.66Z"/><path class="cls-73" d="M26.82,49.76h.1A12.35,12.35,0,0,0,37.59,43.6l0-.09.18.1,0,.1-3.6,6.22L26.82,50Z"/><path class="cls-74" d="M26.92,49.86a12.45,12.45,0,0,0,10.76-6.21h0l-3.59,6.22h-7.2Z"/><path class="cls-75" d="M26.92,49.78a12.39,12.39,0,0,0,10.69-6.17l.17.1-3.59,6.22-7.27,0Z"/><path class="cls-76" d="M26.92,49.88H34.1l3.59-6.22A12.42,12.42,0,0,1,26.92,49.88Z"/><polygon class="cls-77" points="19.54 49.76 34.3 49.76 26.92 62.55 19.54 49.76"/><polygon class="cls-78" points="23.32 56.11 19.71 49.86 26.92 49.86 34.13 49.86 26.92 62.35 23.32 56.11"/><polygon class="cls-79" points="19.57 49.78 34.28 49.78 26.92 62.52 19.57 49.78"/><polygon class="cls-80" points="19.74 49.88 23.33 56.1 26.92 62.32 30.51 56.1 34.1 49.88 26.92 49.88 19.74 49.88"/><path class="cls-81" d="M23.18,68.56l.05-.08a12.37,12.37,0,0,0,0-12.32l-.05-.09.17-.1.08.07L27,62.26l-3.64,6.42Z"/><path class="cls-82" d="M23.32,68.53a12.46,12.46,0,0,0,0-12.42l0,0,3.58,6.22-3.59,6.23Z"/><path class="cls-83" d="M23.24,68.49a12.39,12.39,0,0,0,0-12.34l.17-.1L27,62.27l-3.59,6.32Z"/><path class="cls-84" d="M23.33,68.54l3.59-6.22L23.33,56.1A12.45,12.45,0,0,1,23.33,68.54Z"/><path class="cls-85" d="M12.56,74.87a12.56,12.56,0,1,1,10.87-6.28,12.59,12.59,0,0,1-10.87,6.28Z"/><path class="cls-86" d="M12.56,74.77a12.46,12.46,0,1,1,10.78-6.23,12.48,12.48,0,0,1-10.78,6.23Z"/><path class="cls-87" d="M12.56,74.86a12.54,12.54,0,1,1,10.86-6.27,12.58,12.58,0,0,1-10.86,6.27Z"/><path class="cls-88" d="M23.33,56.1A12.44,12.44,0,0,0,.12,62.32a12.58,12.58,0,0,0,1.66,6.22A12.44,12.44,0,0,0,23.33,56.1Z"/><path class="cls-89" d="M26.92,50A12.56,12.56,0,1,1,37.8,43.71,12.57,12.57,0,0,1,26.92,50Z"/><path class="cls-90" d="M26.92,49.89a12.46,12.46,0,1,1,10.79-6.23,12.49,12.49,0,0,1-10.79,6.23Z"/><path class="cls-91" d="M26.92,50a12.54,12.54,0,1,1,6.27-23.4A12.54,12.54,0,0,1,26.92,50Z"/><path class="cls-92" d="M37.7,31.22a12.45,12.45,0,1,0,0,12.44A12.46,12.46,0,0,0,37.7,31.22Z"/><path class="cls-93" d="M41.29,25.11a12.55,12.55,0,1,1,10.87-6.27,12.59,12.59,0,0,1-10.87,6.27Z"/><path class="cls-94" d="M41.29,25a12.46,12.46,0,1,1,10.78-6.22A12.48,12.48,0,0,1,41.29,25Z"/><path class="cls-95" d="M41.29,25.1a12.54,12.54,0,1,1,10.86-6.27A12.58,12.58,0,0,1,41.29,25.1Z"/><path class="cls-96" d="M30.51,18.78a12.45,12.45,0,1,0,0-12.44A12.45,12.45,0,0,0,30.51,18.78Z"/><path class="cls-97" d="M23.23,56.16v0A12.36,12.36,0,0,0,12.57,50h-.1v-.33l.13.1h7.15l3.74,6.37-.17.1Z"/><path class="cls-98" d="M23.31,56.09a12.45,12.45,0,0,0-10.74-6.2h0v0h7.17l3.61,6.23,0,0Z"/><path class="cls-99" d="M23.24,56.13A12.34,12.34,0,0,0,12.57,50h0v-.2h7.17L23.41,56l-.08.06-.08,0Z"/><path class="cls-100" d="M18.78,51.54a12.44,12.44,0,0,1,4.55,4.56l-3.59-6.22H12.56A12.37,12.37,0,0,1,18.78,51.54Z"/><path class="cls-101" d="M19.74,50,16,43.63l.17-.1.08.07a12.35,12.35,0,0,0,10.67,6.16H27V50l-.1,0Z"/><path class="cls-102" d="M19.74,49.89l-3.61-6.23h0a12.48,12.48,0,0,0,10.76,6.21v0Z"/><path class="cls-103" d="M19.74,50l-3.68-6.27.17-.1a12.4,12.4,0,0,0,10.69,6.17V50Z"/><path class="cls-104" d="M26.92,49.88a12.44,12.44,0,0,1-10.77-6.22l3.59,6.22Z"/><path class="cls-105" d="M37.59,31.26a12.39,12.39,0,0,0-10.65-6.15h-.1l0-.1v-.24l.14.11h7.15l3.68,6.27,0,.16-.09,0Z"/><path class="cls-106" d="M37.68,31.21a12.51,12.51,0,0,0-4.55-4.53A12.36,12.36,0,0,0,26.94,25h0v0l0,0v0h7.17L37.7,31.2v0h0Z"/><path class="cls-107" d="M37.6,31.26a12.2,12.2,0,0,0-4.51-4.51,12.32,12.32,0,0,0-6.15-1.65h0v-.2l0,.1v-.1h7.17l3.67,6.26-.08.06-.09.05Z"/><path class="cls-108" d="M33.14,26.66a12.46,12.46,0,0,1,4.56,4.56L34.11,25H26.92A12.44,12.44,0,0,1,33.14,26.66Z"/><path class="cls-109" d="M34.11,25.11l-3.75-6.36.18-.1.07.07a12.38,12.38,0,0,0,10.68,6.16h.1v.2l-.1,0Z"/><path class="cls-110" d="M34.11,25,30.5,18.78h0A12.45,12.45,0,0,0,41.29,25v0Z"/><path class="cls-111" d="M34.11,25.1l-3.68-6.27.17-.1A12.39,12.39,0,0,0,41.29,24.9v.2Z"/><path class="cls-112" d="M30.51,18.78,34.11,25h7.18A12.45,12.45,0,0,1,30.51,18.78Z"/><polygon class="cls-113" points="5.17 49.99 12.56 37.2 19.94 49.99 5.17 49.99"/><polygon class="cls-114" points="12.56 37.41 16.16 43.65 19.77 49.89 12.56 49.89 5.35 49.89 12.56 37.41"/><polygon class="cls-115" points="5.2 49.98 12.56 37.24 19.91 49.98 5.2 49.98"/><polygon class="cls-116" points="19.74 49.88 16.15 43.66 12.56 37.44 5.38 49.88 12.56 49.88 19.74 49.88"/><polygon class="cls-117" points="26.93 12.32 34.31 25.11 19.54 25.11 26.93 12.32"/><polygon class="cls-118" points="26.92 12.53 30.53 18.77 34.13 25.01 26.92 25.01 19.71 25.01 26.92 12.53"/><polygon class="cls-119" points="19.57 25.1 26.93 12.36 34.28 25.1 19.57 25.1"/><polygon class="cls-120" points="34.1 25 30.51 18.78 26.92 12.56 19.74 25 26.92 25 34.1 25"/><path class="cls-121" d="M1.63,56.12l3.65-6.3,7.38-.06V50l-.1,0A12.34,12.34,0,0,0,1.89,56.16l0,.08Z"/><path class="cls-122" d="M1.77,56.09l3.59-6.22h7.2v0A12.44,12.44,0,0,0,1.8,56.11Z"/><path class="cls-123" d="M1.7,56.05l3.59-6.22,7.27,0V50A12.37,12.37,0,0,0,1.87,56.15Z"/><path class="cls-124" d="M12.56,49.88H5.38L1.79,56.1A12.42,12.42,0,0,1,12.56,49.88Z"/><path class="cls-125" d="M16.05,43.71l-3.59-6.22,3.64-6.42.17.1,0,.11a12.37,12.37,0,0,0,0,12.32l.05.08-.18.1Z"/><path class="cls-126" d="M12.54,37.45l3.6-6.24,0,0a12.46,12.46,0,0,0,0,12.42h0Z"/><path class="cls-127" d="M12.47,37.49l3.59-6.32.18.1a12.39,12.39,0,0,0,0,12.34l-.17.1Z"/><path class="cls-128" d="M16.15,31.22l-3.59,6.22,3.59,6.22A12.45,12.45,0,0,1,16.15,31.22Z"/><path class="cls-129" d="M16,31.25l3.64-6.31L27,24.88v.2l-.1,0a12.35,12.35,0,0,0-10.67,6.17l-.05.08Z"/><path class="cls-130" d="M16.14,31.21,19.73,25h7.19v0a12.46,12.46,0,0,0-10.76,6.22Z"/><path class="cls-131" d="M16.06,31.17,19.66,25l7.26-.05v.2a12.35,12.35,0,0,0-10.68,6.17Z"/><path class="cls-132" d="M26.92,25H19.74l-3.59,6.22A12.44,12.44,0,0,1,26.92,25Z"/><path class="cls-133" d="M30.41,18.83l-3.59-6.21,3.65-6.43.17.1,0,.11a12.35,12.35,0,0,0,0,12.32l.05.09-.17.09Z"/><path class="cls-134" d="M26.91,12.57,30.5,6.33l0,0a12.46,12.46,0,0,0,0,12.42h0Z"/><path class="cls-135" d="M26.84,12.61l3.59-6.32.17.1a12.36,12.36,0,0,0,0,12.34l-.17.1Z"/><path class="cls-136" d="M30.52,6.34l-3.6,6.22,3.59,6.22A12.43,12.43,0,0,1,30.52,6.34Z"/></g></g></svg>