<svg xmlns="http://www.w3.org/2000/svg" viewBox="0 0 471.42 353.42"><path class="cls-1" d="M212,248.48a26,26,0,0,0,26,26c.52,0,1,0,1.56-.05.36,0,.73-.05,1.1-.09a24.23,24.23,0,0,0,3.82-.68,21.89,21.89,0,0,0,2.26-.7,7.9,7.9,0,0,0,.92-.35,22,22,0,0,0,2.46-1.14c.33-.17.65-.35,1-.55s.8-.48,1.19-.75.64-.41.94-.64.52-.38.77-.58a1.93,1.93,0,0,1,.28-.22,21.44,21.44,0,0,0,1.75-1.56h0l0,0c.27.28.57.54.87.8s.57.49.86.72l.28.23c.25.2.51.4.77.58s.62.44.94.64.78.51,1.19.75.66.38,1,.55a21,21,0,0,0,2.45,1.14,8,8,0,0,0,.93.35,21,21,0,0,0,2.25.7,24.15,24.15,0,0,0,3.83.68c.36,0,.73.08,1.1.09s1,.05,1.56.05a26,26,0,0,0,26-26,8,8,0,0,0-15.92,0,10.11,10.11,0,0,1-5.71,9.1c-.29.13-.59.26-.91.37a10.09,10.09,0,0,1-6.91,0c-.32-.11-.62-.24-.91-.37a10.11,10.11,0,0,1-5.71-9.1,8.1,8.1,0,0,0-.36-2.37,6.53,6.53,0,0,0-.61-1.41,7.32,7.32,0,0,0-1.36-1.84,8,8,0,0,0-13.59,5.62,10.11,10.11,0,0,1-5.71,9.1c-.29.13-.6.26-.9.37a10.17,10.17,0,0,1-6.94,0c-.31-.11-.61-.24-.9-.37a10.44,10.44,0,0,1-2.76-2c-.12-.11-.23-.23-.34-.35a3.68,3.68,0,0,1-.32-.37c-.2-.24-.39-.51-.58-.77a8.94,8.94,0,0,1-.51-.84c-.15-.28-.29-.58-.42-.87a10,10,0,0,1-.79-3.93,8,8,0,0,0-15.92,0ZM491.71,315c0,67.86-29.6,89.65-51.87,100.13-17.56,8.27-39.18,12.66-63.12,15v-96.8a29.21,29.21,0,0,0-29.18-29.19H164.46a29.21,29.21,0,0,0-29.18,29.19v96.8c-23.93-2.35-45.55-6.75-63.11-15C49.89,404.65,20.29,382.86,20.29,315A235.71,235.71,0,0,1,422.67,148.33,234.11,234.11,0,0,1,491.71,315Zm-110.1-80.92a14.41,14.41,0,0,0-26-8.61q-.42.56-.78,1.14c-.11.21-.22.41-.35.61a13.25,13.25,0,0,0-.6,1.26h0a14.41,14.41,0,1,0,27.7,5.59Zm-222.39,0a14.41,14.41,0,0,0-19.37-13.53,14.52,14.52,0,0,0-5.24,3.35,14.4,14.4,0,0,0,0,20.37,14.52,14.52,0,0,0,5.24,3.35,14.32,14.32,0,0,0,5,.88,14.59,14.59,0,0,0,5-.88,14.44,14.44,0,0,0,9.45-13.54Z" transform="translate(-20.29 -79.29)"/><path d="M155,223.9a14.42,14.42,0,0,1-5.23,23.72,14.59,14.59,0,0,1-5,.88,14.32,14.32,0,0,1-5-.88,14.52,14.52,0,0,1-5.24-3.35,14.4,14.4,0,0,1,0-20.37,14.52,14.52,0,0,1,5.24-3.35A14.38,14.38,0,0,1,155,223.9Z" transform="translate(-20.29 -79.29)"/><path d="M377.39,223.9a14.41,14.41,0,0,1-10.18,24.6,14.59,14.59,0,0,1-5-.88,14.41,14.41,0,0,1-9.44-13.54,14.63,14.63,0,0,1,1.11-5.59h0a13.25,13.25,0,0,1,.6-1.26c.13-.2.24-.4.35-.61q.36-.59.78-1.14a14.39,14.39,0,0,1,21.74-1.57Z" transform="translate(-20.29 -79.29)"/><path d="M372.16,220.55a14.32,14.32,0,0,1,5.23,3.35A14.4,14.4,0,0,0,372.16,220.55Z" transform="translate(-20.29 -79.29)"/><path class="cls-1" d="M377.39,244.27a14.32,14.32,0,0,1-5.23,3.35A14.4,14.4,0,0,0,377.39,244.27Z" transform="translate(-20.29 -79.29)"/><path d="M360.8,333.34v98c-18.56,1.14-38.2,1.33-58.21,1.33h0q-11.13,0-22.6-.07c-7.89,0-15.88-.06-24-.06s-16.07,0-24,.06c-7.63,0-15.18.07-22.6.07-20,0-39.68-.19-58.25-1.33v-98a13.28,13.28,0,0,1,13.27-13.27H347.54A13.27,13.27,0,0,1,360.8,333.34Z" transform="translate(-20.29 -79.29)"/><path class="cls-1" d="M352.8,234.08a14.41,14.41,0,0,0,9.44,13.54,14.41,14.41,0,0,1-8.33-19.13A14.63,14.63,0,0,0,352.8,234.08Z" transform="translate(-20.29 -79.29)"/><path class="cls-1" d="M355.65,225.47q-.42.56-.78,1.14Q355.23,226,355.65,225.47Z" transform="translate(-20.29 -79.29)"/><path class="cls-1" d="M354.52,227.22a13.25,13.25,0,0,0-.6,1.26A13.25,13.25,0,0,1,354.52,227.22Z" transform="translate(-20.29 -79.29)"/><path d="M292.09,240.53a8,8,0,0,1,8,7.95,26,26,0,0,1-26,26c-.52,0-1,0-1.56-.05s-.74-.05-1.1-.09a24.15,24.15,0,0,1-3.83-.68,21.71,21.71,0,0,1-2.25-.7l-.93-.35a21,21,0,0,1-2.45-1.14c-.35-.17-.66-.36-1-.55s-.8-.48-1.19-.75-.63-.41-.94-.64-.52-.38-.77-.58l-.28-.23c-.29-.23-.58-.47-.86-.72s-.6-.52-.87-.8l0,0a25.9,25.9,0,0,0,8-18.69,10.11,10.11,0,0,0,5.71,9.1c.29.13.59.26.91.37a9.79,9.79,0,0,0,6.91,0c.32-.11.62-.24.91-.37a10.11,10.11,0,0,0,5.71-9.1A8,8,0,0,1,292.09,240.53Z" transform="translate(-20.29 -79.29)"/><path d="M277.5,258c.32-.11.62-.24.91-.37C278.12,257.71,277.82,257.84,277.5,258Z" transform="translate(-20.29 -79.29)"/><path d="M274.05,258.56a9.86,9.86,0,0,0,3.45-.61,9.79,9.79,0,0,1-6.91,0A9.87,9.87,0,0,0,274.05,258.56Z" transform="translate(-20.29 -79.29)"/><path d="M271.39,274.34c.36,0,.73.08,1.1.09C272.12,274.42,271.75,274.38,271.39,274.34Z" transform="translate(-20.29 -79.29)"/><path d="M269.68,257.58c.29.13.59.26.91.37C270.27,257.84,270,257.71,269.68,257.58Z" transform="translate(-20.29 -79.29)"/><path class="cls-1" d="M265.31,273a21.71,21.71,0,0,0,2.25.7A21,21,0,0,1,265.31,273Z" transform="translate(-20.29 -79.29)"/><path class="cls-1" d="M264.38,272.61l.93.35A8,8,0,0,1,264.38,272.61Z" transform="translate(-20.29 -79.29)"/><path d="M263.61,246.11a8.1,8.1,0,0,1,.36,2.37,25.9,25.9,0,0,1-8,18.69h0a25.89,25.89,0,0,1-7.95-18.69,8,8,0,0,1,13.59-5.62A7.57,7.57,0,0,1,263,244.7,8.45,8.45,0,0,1,263.61,246.11Z" transform="translate(-20.29 -79.29)"/><path d="M263,244.7a6.53,6.53,0,0,1,.61,1.41A8.45,8.45,0,0,0,263,244.7Z" transform="translate(-20.29 -79.29)"/><path d="M261.64,242.86A7.32,7.32,0,0,1,263,244.7,7.57,7.57,0,0,0,261.64,242.86Z" transform="translate(-20.29 -79.29)"/><path class="cls-1" d="M260.94,270.92c.33.19.64.38,1,.55C261.6,271.3,261.27,271.12,260.94,270.92Z" transform="translate(-20.29 -79.29)"/><path class="cls-1" d="M258.81,269.53c.31.23.62.44.94.64C259.43,270,259.12,269.76,258.81,269.53Z" transform="translate(-20.29 -79.29)"/><path class="cls-1" d="M258,269c.25.2.51.39.77.58C258.55,269.35,258.29,269.15,258,269Z" transform="translate(-20.29 -79.29)"/><path class="cls-1" d="M256.9,268c.28.25.57.49.86.72C257.47,268.49,257.18,268.25,256.9,268Z" transform="translate(-20.29 -79.29)"/><path class="cls-1" d="M256,267.2c.27.28.57.54.87.8C256.6,267.74,256.3,267.48,256,267.2Z" transform="translate(-20.29 -79.29)"/><path d="M248.05,248.48A25.89,25.89,0,0,0,256,267.17c-.56.55-1.14,1.07-1.75,1.56a1.93,1.93,0,0,0-.28.22c-.25.2-.5.39-.77.58s-.62.44-.94.64-.78.51-1.19.75-.64.38-1,.55a22,22,0,0,1-2.46,1.14l-.92.35a23.52,23.52,0,0,1-2.26.7,24.23,24.23,0,0,1-3.82.68c-.37,0-.74.08-1.1.09-.52,0-1,.05-1.56.05a26,26,0,0,1-26-26,8,8,0,0,1,15.92,0,10,10,0,0,0,.79,3.93c.13.29.27.59.42.87a8.94,8.94,0,0,0,.51.84,6,6,0,0,0,.58.77,3.68,3.68,0,0,0,.32.37c.11.12.22.24.34.35a10.44,10.44,0,0,0,2.76,2c.29.13.59.26.9.37a9.87,9.87,0,0,0,6.94,0c.3-.11.61-.24.9-.37A10.11,10.11,0,0,0,248.05,248.48Z" transform="translate(-20.29 -79.29)"/><path d="M254.25,268.73c.61-.49,1.19-1,1.75-1.56A21.44,21.44,0,0,1,254.25,268.73Z" transform="translate(-20.29 -79.29)"/><path d="M253.2,269.53c.27-.19.52-.38.77-.58C253.72,269.15,253.47,269.35,253.2,269.53Z" transform="translate(-20.29 -79.29)"/><path d="M252.26,270.17c.32-.2.64-.41.94-.64C252.9,269.76,252.58,270,252.26,270.17Z" transform="translate(-20.29 -79.29)"/><path d="M250.09,271.47c.34-.17.65-.36,1-.55C250.74,271.12,250.42,271.3,250.09,271.47Z" transform="translate(-20.29 -79.29)"/><path d="M246.71,273l.92-.35A7.9,7.9,0,0,1,246.71,273Z" transform="translate(-20.29 -79.29)"/><path d="M246.71,273a21.89,21.89,0,0,1-2.26.7A23.52,23.52,0,0,0,246.71,273Z" transform="translate(-20.29 -79.29)"/><path d="M241.44,258c.3-.11.61-.24.9-.37C242.05,257.71,241.74,257.84,241.44,258Z" transform="translate(-20.29 -79.29)"/><path d="M239.53,274.43c.36,0,.73-.05,1.1-.09C240.26,274.38,239.89,274.42,239.53,274.43Z" transform="translate(-20.29 -79.29)"/><path d="M238,258.56a10.05,10.05,0,0,0,3.47-.61,9.87,9.87,0,0,1-6.94,0A10,10,0,0,0,238,258.56Z" transform="translate(-20.29 -79.29)"/><path d="M233.6,257.58c.29.13.59.26.9.37C234.19,257.84,233.89,257.71,233.6,257.58Z" transform="translate(-20.29 -79.29)"/><path d="M230.5,255.26c.11.12.22.24.34.35C230.72,255.5,230.61,255.38,230.5,255.26Z" transform="translate(-20.29 -79.29)"/><path d="M229.6,254.12c.19.26.38.53.58.77A6,6,0,0,1,229.6,254.12Z" transform="translate(-20.29 -79.29)"/><path d="M228.67,252.41c.13.29.27.59.42.87C228.94,253,228.8,252.7,228.67,252.41Z" transform="translate(-20.29 -79.29)"/><path d="M149.77,220.55A14.32,14.32,0,0,1,155,223.9,14.4,14.4,0,0,0,149.77,220.55Z" transform="translate(-20.29 -79.29)"/><path class="cls-1" d="M155,244.27a14.32,14.32,0,0,1-5.23,3.35A14.4,14.4,0,0,0,155,244.27Z" transform="translate(-20.29 -79.29)"/><path d="M134.61,223.9a14.52,14.52,0,0,1,5.24-3.35A14.52,14.52,0,0,0,134.61,223.9Z" transform="translate(-20.29 -79.29)"/><path class="cls-1" d="M134.61,244.27a14.52,14.52,0,0,0,5.24,3.35A14.52,14.52,0,0,1,134.61,244.27Z" transform="translate(-20.29 -79.29)"/></svg>